<svg width="116" height="28" viewBox="0 0 116 28" fill="none" xmlns="http://www.w3.org/2000/svg">
<path d="M35.3704 7.64538H37.9412V9.91379C38.0925 9.57773 38.2941 9.25847 38.5462 8.95602C38.7982 8.63676 39.0839 8.35951 39.4031 8.12427C39.7392 7.88902 40.1004 7.70419 40.4869 7.56977C40.8734 7.43534 41.285 7.36813 41.7219 7.36813C42.8309 7.36813 43.6963 7.60337 44.318 8.07386C44.9397 8.54434 45.3682 9.15765 45.6034 9.91379C45.9899 9.15765 46.5276 8.54434 47.2165 8.07386C47.9222 7.60337 48.7372 7.36813 49.6614 7.36813C51.056 7.36813 52.1314 7.7798 52.8875 8.60315C53.6437 9.4265 54.0217 10.7035 54.0217 12.4342V21.0038H51.2492V13.0644C51.2492 11.8713 51.0224 11.0312 50.5687 10.5439C50.1318 10.0398 49.5353 9.78777 48.7792 9.78777C47.8718 9.78777 47.1913 10.0986 46.7376 10.7203C46.3008 11.3252 46.0823 12.1066 46.0823 13.0644V21.0038H43.3098V13.0644C43.3098 11.8713 43.083 11.0312 42.6293 10.5439C42.1924 10.0398 41.5959 9.78777 40.8398 9.78777C39.9324 9.78777 39.2519 10.0986 38.7982 10.7203C38.3613 11.3252 38.1429 12.1066 38.1429 13.0644V21.0038H35.3704V7.64538Z" fill="#CC0029"/>
<path d="M63.2214 21.281C62.2972 21.281 61.4319 21.1382 60.6253 20.8526C59.8356 20.5501 59.1467 20.1132 58.5586 19.5419C57.9705 18.9706 57.5084 18.2649 57.1723 17.4247C56.8363 16.5678 56.6682 15.5764 56.6682 14.4506V13.9465C56.6682 12.8879 56.8363 11.9554 57.1723 11.1488C57.5084 10.3255 57.9705 9.63654 58.5586 9.08204C59.1467 8.51074 59.8356 8.08226 60.6253 7.79661C61.4319 7.51096 62.2972 7.36813 63.2214 7.36813C64.1456 7.36813 65.0025 7.51096 65.7923 7.79661C66.5988 8.08226 67.2961 8.51074 67.8842 9.08204C68.4724 9.63654 68.9344 10.3255 69.2705 11.1488C69.6066 11.9554 69.7746 12.8879 69.7746 13.9465V14.4506C69.7746 15.5764 69.6066 16.5678 69.2705 17.4247C68.9344 18.2649 68.4724 18.9706 67.8842 19.5419C67.2961 20.1132 66.5988 20.5501 65.7923 20.8526C65.0025 21.1382 64.1456 21.281 63.2214 21.281ZM63.2214 18.8614C63.7087 18.8614 64.1708 18.7774 64.6077 18.6094C65.0613 18.4413 65.4562 18.1809 65.7923 17.828C66.1451 17.4752 66.4224 17.0215 66.624 16.467C66.8425 15.9125 66.9517 15.2403 66.9517 14.4506V13.9465C66.9517 13.224 66.8425 12.6023 66.624 12.0814C66.4224 11.5605 66.1451 11.132 65.7923 10.7959C65.4562 10.4599 65.0613 10.2078 64.6077 10.0398C64.1708 9.87178 63.7087 9.78777 63.2214 9.78777C62.7341 9.78777 62.2636 9.87178 61.8099 10.0398C61.3731 10.2078 60.9782 10.4599 60.6253 10.7959C60.2893 11.132 60.012 11.5605 59.7936 12.0814C59.5919 12.6023 59.4911 13.224 59.4911 13.9465V14.4506C59.4911 15.2403 59.5919 15.9125 59.7936 16.467C60.012 17.0215 60.2893 17.4752 60.6253 17.828C60.9782 18.1809 61.3731 18.4413 61.8099 18.6094C62.2636 18.7774 62.7341 18.8614 63.2214 18.8614Z" fill="#CC0029"/>
<path d="M77.5781 21.281C76.5868 21.281 75.7382 21.1718 75.0325 20.9534C74.3436 20.7349 73.7639 20.4409 73.2934 20.0712C72.8397 19.7016 72.4868 19.2731 72.2348 18.7858C71.9995 18.2817 71.8483 17.7608 71.7811 17.2231H74.5536C74.6712 17.6936 74.9569 18.0885 75.4106 18.4077C75.8642 18.7102 76.5868 18.8614 77.5781 18.8614C78.6871 18.8614 79.4685 18.7102 79.9222 18.4077C80.3759 18.1053 80.6027 17.7104 80.6027 17.2231C80.6027 17.0047 80.5439 16.803 80.4263 16.6182C80.3086 16.4166 80.1154 16.2401 79.8466 16.0889C79.5945 15.9209 79.2501 15.7696 78.8132 15.6352C78.3763 15.5008 77.8302 15.3916 77.1749 15.3076C76.4187 15.2067 75.7298 15.0639 75.1081 14.8791C74.4864 14.6774 73.9571 14.417 73.5202 14.0977C73.0833 13.7785 72.7473 13.392 72.512 12.9383C72.2768 12.4847 72.1592 11.9386 72.1592 11.3C72.1592 10.7623 72.2684 10.2583 72.4868 9.78777C72.7053 9.30048 73.0413 8.8804 73.495 8.52754C73.9487 8.17468 74.5116 7.89743 75.1837 7.69579C75.8726 7.47735 76.6708 7.36813 77.5781 7.36813C78.4519 7.36813 79.208 7.47735 79.8466 7.69579C80.4851 7.91423 81.0144 8.20828 81.4344 8.57795C81.8713 8.94761 82.199 9.38449 82.4174 9.88859C82.6527 10.3759 82.8039 10.8884 82.8711 11.4261H80.0986C79.9642 10.9052 79.6869 10.5019 79.2669 10.2162C78.8636 9.93059 78.3007 9.78777 77.5781 9.78777C76.5868 9.78777 75.8979 9.93899 75.5114 10.2414C75.1249 10.5439 74.9317 10.8968 74.9317 11.3C74.9317 11.5353 74.9821 11.7453 75.0829 11.9302C75.1837 12.115 75.3517 12.283 75.587 12.4342C75.8222 12.5687 76.1415 12.6947 76.5448 12.8123C76.9648 12.9299 77.4941 13.0224 78.1327 13.0896C78.9056 13.1904 79.6113 13.3416 80.2498 13.5432C80.9051 13.7449 81.4596 14.0137 81.9133 14.3498C82.3838 14.669 82.7451 15.0723 82.9971 15.5596C83.2492 16.0301 83.3752 16.5846 83.3752 17.2231C83.3752 17.7944 83.2492 18.3321 82.9971 18.8362C82.7619 19.3235 82.4006 19.752 81.9133 20.1216C81.4428 20.4745 80.8379 20.7601 80.0986 20.9786C79.3761 21.1802 78.5359 21.281 77.5781 21.281Z" fill="#CC0029"/>
<path d="M88.2911 21.281C87.7198 21.281 87.2409 21.0878 86.8544 20.7013C86.4679 20.3149 86.2747 19.836 86.2747 19.2647C86.2747 18.6766 86.4679 18.1977 86.8544 17.828C87.2409 17.4415 87.7198 17.2483 88.2911 17.2483C88.8624 17.2483 89.3413 17.4415 89.7277 17.828C90.1142 18.1977 90.3074 18.6766 90.3074 19.2647C90.3074 19.836 90.1142 20.3149 89.7277 20.7013C89.3413 21.0878 88.8624 21.281 88.2911 21.281Z" fill="#CC0029"/>
<path d="M93.9513 7.64538H96.5221V9.91379C96.791 9.22486 97.2278 8.62836 97.8328 8.12427C98.4545 7.62018 99.219 7.36813 100.126 7.36813C100.546 7.36813 100.857 7.38493 101.059 7.41854C101.277 7.45215 101.429 7.48575 101.513 7.51936V10.0398C101.227 9.9558 100.967 9.89699 100.731 9.86338C100.496 9.81297 100.21 9.78777 99.8743 9.78777C99.3198 9.78777 98.8409 9.88859 98.4377 10.0902C98.0512 10.2751 97.7319 10.5271 97.4799 10.8464C97.2279 11.1488 97.0346 11.5101 96.9002 11.9302C96.7826 12.3334 96.7238 12.7535 96.7238 13.1904V21.0038H93.9513V7.64538Z" fill="#CC0029"/>
<path d="M108.435 21.281C106.856 21.281 105.663 20.8274 104.856 19.92C104.049 18.9958 103.646 17.5928 103.646 15.7108V7.64538H106.419V15.4588C106.419 16.5846 106.645 17.4331 107.099 18.0044C107.57 18.5758 108.309 18.8614 109.317 18.8614C109.872 18.8614 110.342 18.769 110.729 18.5842C111.132 18.3993 111.46 18.1473 111.712 17.828C111.964 17.5088 112.148 17.1475 112.266 16.7442C112.401 16.3241 112.468 15.8957 112.468 15.4588V7.64538H115.24V21.0038H112.669V18.7354C112.35 19.4243 111.829 20.0208 111.107 20.5249C110.401 21.029 109.51 21.281 108.435 21.281Z" fill="#CC0029"/>
<path fill-rule="evenodd" clip-rule="evenodd" d="M3.50063 23.8043H8.40152V26.9364C8.40158 27.241 8.45085 27.5223 8.67816 27.725C9.11854 28.1178 9.82909 28.0879 10.2218 27.6475C10.2218 27.6475 11.2087 26.4356 11.7621 25.9047C13.4494 24.191 14.7615 23.8043 16.803 23.8043H18.9034C20.8114 23.8043 22.404 22.6185 22.404 20.7237V0.560101C22.404 0.245873 22.1582 0 21.8439 0H0.560101C0.245856 0 0 0.245873 0 0.560101V20.7237C0 22.6185 1.59263 23.8043 3.50063 23.8043ZM2.80051 20.1636V2.80051H19.6035V20.1636C19.6035 20.6723 19.3077 21.0038 18.7634 21.0038H16.803C14.406 21.0038 12.6123 21.7595 10.7819 23.3842V21.0038H3.64066C3.09636 21.0038 2.80051 20.6723 2.80051 20.1636Z" fill="#CC0029"/>
</svg>
